<svg xmlns="http://www.w3.org/2000/svg" xmlns:xlink="http://www.w3.org/1999/xlink" viewBox="0,0,256,256" width="64px" height="64px" fill-rule="nonzero"><g fill="#ffffff" fill-rule="nonzero" stroke="#ffffff" stroke-width="10" stroke-linecap="butt" stroke-linejoin="round" stroke-miterlimit="10" stroke-dasharray="" stroke-dashoffset="0" font-family="none" font-weight="none" font-size="none" text-anchor="none" style="mix-blend-mode: normal"><path transform="scale(4,4)" d="M58,32c0,14.359 -11.641,26 -26,26c-14.359,0 -26,-11.641 -26,-26c0,-14.359 11.641,-26 26,-26c14.359,0 26,11.641 26,26z" id="strokeMainSVG"></path></g><g fill="#394359" fill-rule="nonzero" stroke="none" stroke-width="1" stroke-linecap="butt" stroke-linejoin="miter" stroke-miterlimit="10" stroke-dasharray="" stroke-dashoffset="0" font-family="none" font-weight="none" font-size="none" text-anchor="none" style="mix-blend-mode: normal"><g transform="scale(4,4)"><path d="M32,6c-14.359,0 -26,11.641 -26,26c0,14.359 11.641,26 26,26c14.359,0 26,-11.641 26,-26c0,-14.359 -11.641,-26 -26,-26zM29,42l-11,-11l2,-3l9,6l13.957,-12l3.043,3z"></path></g></g></svg>